<?xml version="1.0" encoding="utf-8"?>
<!-- Generator: Adobe Illustrator 17.0.0, SVG Export Plug-In . SVG Version: 6.00 Build 0)  -->
<!DOCTYPE svg PUBLIC "-//W3C//DTD SVG 1.1//EN" "http://www.w3.org/Graphics/SVG/1.1/DTD/svg11.dtd">
<svg version="1.1" id="Layer_1" xmlns="http://www.w3.org/2000/svg" xmlns:xlink="http://www.w3.org/1999/xlink" x="0px" y="0px"
	 width="327.601px" height="63.002px" viewBox="0 0 327.601 63.002" enable-background="new 0 0 327.601 63.002"
	 xml:space="preserve">
<g>
	<path fill="#EB0029" d="M32.766,22.765C38.351,16.527,43.2,11.949,47.208,9.099C40.693,3.775,31.126,1.07,18.745,1.07
		C12.219,1.07,5.917,1.957,0,3.695v15.101c1.132-0.133,2.125-0.197,3.067-0.197c7.614,0,11.474,3.57,11.474,10.612
		c0,8.342-4.762,16.865-14.152,25.336c-0.103,0.099-0.212,0.188-0.316,0.274C0.046,54.844,0.023,54.864,0,54.885v8.117h3.67
		c3.17-4.574,7.831-11.545,13.865-20.739C21.792,35.851,26.917,29.292,32.766,22.765z M0,0v1.144C1.817,0.689,3.667,0.315,5.536,0H0
		z M31.167,0c7.077,1.282,13.384,3.693,18.822,7.21c4.36-2.68,8.733-4.632,13.003-5.812V0H31.167z M12.373,29.452
		c0-5.903-2.957-8.771-9.043-8.771c-1.008,0-2.104,0.128-3.33,0.373v30.852C8.205,44.206,12.373,36.655,12.373,29.452z
		 M60.973,25.952c0,5.559-2.268,10.461-6.739,14.579c-4.447,4.104-9.729,6.184-15.692,6.184c-2.348,0-4.892-0.469-7.564-1.394
		c-2.966-1.022-4.286-1.955-4.286-3.029v-0.079l0.027-0.081c0.156-0.444,0.509-0.7,0.97-0.7c0.291,0,0.689,0.14,1.253,0.443
		c2.548,1.434,5.152,2.16,7.74,2.16c4.701,0,8.78-2.045,12.128-6.08c3.379-4.066,5.093-8.982,5.093-14.613
		c0-4.689-1.697-8.946-5.012-12.665c-9,6.851-17.678,18.916-25.794,35.891c-3.143,6.572-6.189,12.086-9.064,16.435h48.959V3.591
		C59.259,4.689,55.47,6.397,51.707,8.67C57.849,13.741,60.973,19.552,60.973,25.952z"/>
	<g>
		<path d="M78.465,57.129h4.587c1.679,0,2.976-0.372,3.891-1.116c0.915-0.744,1.372-1.806,1.372-3.186
			c0-1.031-0.282-1.835-0.845-2.412c-0.563-0.577-1.442-0.954-2.636-1.132v-0.062c1.017-0.164,1.79-0.534,2.319-1.111
			c0.529-0.577,0.794-1.299,0.794-2.166c0-1.27-0.434-2.219-1.3-2.848c-0.867-0.628-2.225-0.942-4.075-0.942h-4.106V57.129z
			 M79.509,43.075h3.021c1.427,0,2.5,0.225,3.22,0.676c0.72,0.451,1.08,1.175,1.08,2.172c0,0.997-0.319,1.73-0.957,2.197
			c-0.638,0.468-1.66,0.702-3.067,0.702h-3.297V43.075z M82.806,49.744c2.921,0,4.382,1.028,4.382,3.083
			c0,2.254-1.386,3.38-4.157,3.38h-3.522v-6.464H82.806z"/>
		<path d="M98.4,56.812v-0.942c-0.867,0.362-1.806,0.543-2.816,0.543c-1.263,0-2.246-0.425-2.949-1.275
			c-0.703-0.85-1.055-2.027-1.055-3.529c0-1.584,0.352-2.798,1.055-3.642c0.703-0.843,1.737-1.265,3.102-1.265
			c0.71,0,1.546,0.16,2.509,0.481l0.276-0.901c-0.881-0.335-1.802-0.502-2.765-0.502c-1.625,0-2.905,0.514-3.84,1.542
			s-1.403,2.463-1.403,4.307c0,1.796,0.451,3.196,1.352,4.2c0.901,1.004,2.147,1.506,3.737,1.506
			C96.758,57.334,97.69,57.16,98.4,56.812L98.4,56.812z"/>
		<path d="M106.668,57.186c0.532-0.099,1.113-0.285,1.741-0.558v-0.922c-0.737,0.294-1.346,0.485-1.828,0.574
			c-0.481,0.089-1.039,0.133-1.674,0.133c-1.304,0-2.306-0.403-3.005-1.209c-0.7-0.806-1.056-1.974-1.07-3.503h8.017v-0.82
			c0-1.571-0.379-2.813-1.136-3.729c-0.758-0.915-1.792-1.373-3.102-1.373c-1.481,0-2.659,0.534-3.533,1.603
			c-0.874,1.069-1.311,2.491-1.311,4.266c0,1.796,0.452,3.193,1.357,4.19c0.904,0.997,2.166,1.495,3.783,1.495
			C105.549,57.334,106.136,57.285,106.668,57.186z M106.935,47.772c0.56,0.727,0.84,1.736,0.84,3.027h-6.881
			c0.109-1.332,0.488-2.351,1.137-3.058c0.648-0.707,1.509-1.06,2.58-1.06C105.6,46.681,106.375,47.045,106.935,47.772z"/>
		<path d="M126.147,56.166h-1.485V45.995h-5.355c-0.027,2.035-0.294,3.913-0.799,5.634c-0.505,1.721-1.222,3.234-2.15,4.538h-0.737
			v4.743h1.003v-3.78h8.519v3.78h1.003V56.166z M117.505,56.166c1.624-2.458,2.519-5.535,2.683-9.229h3.461v9.229H117.505z"/>
		<path d="M135.866,45.995h-5.857c-0.246,3.606-0.606,6.223-1.08,7.852c-0.475,1.629-1.097,2.443-1.869,2.443
			c-0.239,0-0.423-0.02-0.553-0.061v0.922c0.198,0.055,0.43,0.082,0.696,0.082c0.744,0,1.35-0.333,1.817-0.999
			c0.467-0.666,0.85-1.707,1.147-3.124c0.297-1.417,0.548-3.474,0.753-6.172h3.942v10.192h1.003V45.995z"/>
		<path d="M142.227,52.448h3.399v4.681h1.003V45.995h-4.587c-1.147,0-2.06,0.292-2.739,0.876c-0.679,0.584-1.019,1.381-1.019,2.392
			c0,0.813,0.227,1.479,0.681,1.997c0.454,0.519,1.193,0.874,2.217,1.065l-3.358,4.804h1.28L142.227,52.448z M140.051,47.536
			c0.467-0.386,1.124-0.579,1.971-0.579h3.604v4.528h-3.297c-0.997,0-1.742-0.186-2.237-0.558c-0.495-0.372-0.742-0.941-0.742-1.706
			C139.35,48.484,139.584,47.922,140.051,47.536z"/>
		<path d="M165.504,47.47c-0.922-1.004-2.222-1.567-3.901-1.69v-4.589H160.6v4.589c-1.693,0.123-3.004,0.686-3.932,1.69
			c-0.928,1.004-1.393,2.363-1.393,4.077c0,1.741,0.471,3.118,1.413,4.128c0.942,1.011,2.246,1.564,3.911,1.659v4.835h1.003v-4.835
			c1.672-0.123,2.971-0.69,3.896-1.7c0.925-1.011,1.388-2.373,1.388-4.087C166.887,49.833,166.426,48.474,165.504,47.47z
			 M157.42,48.141c0.72-0.83,1.78-1.302,3.179-1.419v9.67c-1.358-0.103-2.408-0.572-3.149-1.409
			c-0.741-0.836-1.111-1.982-1.111-3.437C156.34,50.106,156.7,48.97,157.42,48.141z M164.736,54.937
			c-0.724,0.854-1.768,1.339-3.133,1.455v-9.67c1.351,0.116,2.392,0.593,3.123,1.429c0.73,0.837,1.096,1.968,1.096,3.396
			C165.822,52.953,165.46,54.084,164.736,54.937z"/>
		<path d="M178.228,57.129v-7.406c0-1.345-0.302-2.335-0.906-2.971c-0.604-0.635-1.517-0.953-2.739-0.953
			c-1.195,0-2.403,0.287-3.625,0.861l0.379,0.881c1.106-0.574,2.174-0.86,3.205-0.86c0.956,0,1.648,0.27,2.079,0.809
			c0.43,0.54,0.645,1.339,0.645,2.397v0.737l-2.12,0.062c-1.713,0.034-3.022,0.352-3.927,0.953c-0.905,0.601-1.357,1.444-1.357,2.53
			c0,0.99,0.304,1.765,0.911,2.325c0.607,0.56,1.457,0.84,2.55,0.84c0.805,0,1.503-0.149,2.094-0.446
			c0.59-0.297,1.166-0.804,1.725-1.521h0.082l0.256,1.762H178.228z M171.577,55.834c-0.427-0.386-0.64-0.927-0.64-1.624
			c0-0.874,0.333-1.518,0.998-1.931c0.666-0.413,1.78-0.657,3.343-0.732l1.945-0.082v1.096c0,1.209-0.343,2.153-1.029,2.832
			c-0.686,0.68-1.623,1.019-2.811,1.019C172.607,56.412,172.004,56.219,171.577,55.834z"/>
		<path d="M189.063,56.812v-0.942c-0.867,0.362-1.806,0.543-2.816,0.543c-1.263,0-2.246-0.425-2.949-1.275
			c-0.703-0.85-1.055-2.027-1.055-3.529c0-1.584,0.351-2.798,1.055-3.642c0.703-0.843,1.737-1.265,3.102-1.265
			c0.71,0,1.546,0.16,2.508,0.481l0.276-0.901c-0.881-0.335-1.802-0.502-2.765-0.502c-1.625,0-2.905,0.514-3.84,1.542
			c-0.935,1.028-1.403,2.463-1.403,4.307c0,1.796,0.45,3.196,1.352,4.2c0.901,1.004,2.147,1.506,3.737,1.506
			C187.421,57.334,188.353,57.16,189.063,56.812L189.063,56.812z"/>
		<path d="M198.581,57.129v-7.406c0-1.345-0.302-2.335-0.906-2.971c-0.604-0.635-1.517-0.953-2.739-0.953
			c-1.195,0-2.403,0.287-3.625,0.861l0.379,0.881c1.106-0.574,2.174-0.86,3.205-0.86c0.956,0,1.648,0.27,2.079,0.809
			c0.43,0.54,0.645,1.339,0.645,2.397v0.737l-2.12,0.062c-1.714,0.034-3.022,0.352-3.927,0.953c-0.904,0.601-1.357,1.444-1.357,2.53
			c0,0.99,0.304,1.765,0.911,2.325c0.607,0.56,1.457,0.84,2.549,0.84c0.805,0,1.503-0.149,2.094-0.446
			c0.59-0.297,1.165-0.804,1.725-1.521h0.082l0.256,1.762H198.581z M191.93,55.834c-0.427-0.386-0.64-0.927-0.64-1.624
			c0-0.874,0.333-1.518,0.998-1.931c0.666-0.413,1.78-0.657,3.343-0.732l1.945-0.082v1.096c0,1.209-0.343,2.153-1.029,2.832
			c-0.686,0.68-1.623,1.019-2.811,1.019C192.959,56.412,192.357,56.219,191.93,55.834z"/>
		<path d="M211.259,56.166h-1.485V45.995h-5.355c-0.027,2.035-0.294,3.913-0.799,5.634c-0.505,1.721-1.222,3.234-2.15,4.538h-0.737
			v4.743h1.003v-3.78h8.519v3.78h1.003V56.166z M202.617,56.166c1.624-2.458,2.519-5.535,2.683-9.229h3.461v9.229H202.617z"/>
		<path d="M221.178,47.321c-0.87-1.028-2.07-1.542-3.599-1.542c-1.536,0-2.744,0.507-3.625,1.521
			c-0.881,1.014-1.321,2.429-1.321,4.246c0,1.154,0.198,2.172,0.594,3.053c0.396,0.881,0.966,1.557,1.71,2.028
			c0.744,0.471,1.604,0.707,2.58,0.707c1.549,0,2.764-0.51,3.645-1.531c0.881-1.021,1.321-2.44,1.321-4.256
			C222.484,49.758,222.048,48.349,221.178,47.321z M214.697,47.967c0.666-0.843,1.613-1.265,2.841-1.265
			c1.229,0,2.182,0.423,2.862,1.27c0.679,0.847,1.019,2.038,1.019,3.575c0,1.53-0.336,2.723-1.009,3.58
			c-0.672,0.857-1.623,1.286-2.852,1.286c-1.229,0-2.179-0.428-2.852-1.286c-0.672-0.857-1.009-2.05-1.009-3.58
			C213.699,50.003,214.031,48.81,214.697,47.967z"/>
		<path d="M233.813,46.681c-0.638-0.457-1.592-0.686-2.862-0.686h-4.72v11.135h4.7c1.358,0,2.391-0.288,3.097-0.866
			c0.707-0.577,1.06-1.402,1.06-2.474c0-0.772-0.2-1.364-0.599-1.777c-0.399-0.413-1.046-0.671-1.94-0.773v-0.072
			c0.785-0.157,1.352-0.435,1.7-0.835c0.348-0.4,0.522-0.951,0.522-1.654C234.77,47.804,234.451,47.139,233.813,46.681z
			 M231.012,56.166h-3.768v-4.446h3.625c2.095,0,3.143,0.683,3.143,2.049C234.012,55.367,233.012,56.166,231.012,56.166
			L231.012,56.166z M233.019,50.287c-0.45,0.321-1.195,0.482-2.232,0.482h-3.543v-3.811h3.666c0.928,0,1.625,0.138,2.089,0.415
			c0.464,0.276,0.696,0.739,0.696,1.388C233.695,49.457,233.47,49.966,233.019,50.287z"/>
		<path d="M242.883,45.995v11.135h1.321l6.604-10.151l-0.041,2.151v8h0.973V45.995h-1.352l-6.604,10.151l0.061-2.1v-8.051H242.883z"
			/>
		<path d="M262.42,51.403v-5.409h-1.034v11.135h1.034v-5.644l5.263,5.644h1.362l-5.345-5.747l4.986-5.388h-1.259L262.42,51.403z"/>
		<path d="M278.792,55.823c0.829-1.007,1.244-2.426,1.244-4.256c0-1.885-0.394-3.32-1.183-4.307c-0.789-0.987-1.934-1.48-3.435-1.48
			c-1.679,0-2.901,0.601-3.665,1.803h-0.061l-0.195-1.588h-0.86v16.174h1.014v-4.241c0-0.601-0.014-1.154-0.041-1.659l-0.031-0.861
			h0.072c0.785,1.284,2.034,1.926,3.747,1.926C276.832,57.334,277.963,56.831,278.792,55.823z M272.526,55.316
			c-0.584-0.744-0.875-1.987-0.875-3.729V51.26c0-1.612,0.304-2.774,0.911-3.488c0.608-0.713,1.56-1.07,2.857-1.07
			c2.362,0,3.543,1.635,3.543,4.907c0,1.523-0.312,2.708-0.937,3.554c-0.625,0.847-1.507,1.27-2.647,1.27
			C274.06,56.433,273.11,56.061,272.526,55.316z"/>
		<path d="M291.488,47.321c-0.87-1.028-2.07-1.542-3.599-1.542c-1.536,0-2.744,0.507-3.625,1.521
			c-0.881,1.014-1.321,2.429-1.321,4.246c0,1.154,0.198,2.172,0.594,3.053c0.396,0.881,0.966,1.557,1.71,2.028
			c0.744,0.471,1.604,0.707,2.58,0.707c1.549,0,2.765-0.51,3.645-1.531c0.881-1.021,1.321-2.44,1.321-4.256
			C292.794,49.758,292.359,48.349,291.488,47.321z M285.007,47.967c0.666-0.843,1.613-1.265,2.841-1.265
			c1.229,0,2.183,0.423,2.862,1.27c0.679,0.847,1.019,2.038,1.019,3.575c0,1.53-0.336,2.723-1.009,3.58
			c-0.672,0.857-1.623,1.286-2.852,1.286c-1.229,0-2.179-0.428-2.852-1.286c-0.672-0.857-1.009-2.05-1.009-3.58
			C284.009,50.003,284.342,48.81,285.007,47.967z"/>
		<path d="M304.123,46.681c-0.638-0.457-1.592-0.686-2.862-0.686h-4.72v11.135h4.7c1.358,0,2.391-0.288,3.097-0.866
			c0.706-0.577,1.06-1.402,1.06-2.474c0-0.772-0.2-1.364-0.599-1.777c-0.399-0.413-1.046-0.671-1.94-0.773v-0.072
			c0.785-0.157,1.352-0.435,1.7-0.835c0.348-0.4,0.522-0.951,0.522-1.654C305.08,47.804,304.761,47.139,304.123,46.681z
			 M301.322,56.166h-3.768v-4.446h3.625c2.095,0,3.143,0.683,3.143,2.049C304.323,55.367,303.322,56.166,301.322,56.166
			L301.322,56.166z M303.329,50.287c-0.451,0.321-1.195,0.482-2.232,0.482h-3.543v-3.811h3.666c0.928,0,1.624,0.138,2.089,0.415
			c0.464,0.276,0.696,0.739,0.696,1.388C304.005,49.457,303.78,49.966,303.329,50.287z"/>
		<path d="M315.342,45.995h-5.857c-0.246,3.606-0.606,6.223-1.08,7.852c-0.475,1.629-1.097,2.443-1.869,2.443
			c-0.239,0-0.423-0.02-0.553-0.061v0.922c0.198,0.055,0.43,0.082,0.696,0.082c0.744,0,1.35-0.333,1.817-0.999
			c0.467-0.666,0.85-1.707,1.147-3.124c0.297-1.417,0.548-3.474,0.753-6.172h3.942v10.192h1.003V45.995z"/>
		<path d="M318.744,45.995v11.135h1.321l6.604-10.151l-0.041,2.151v8h0.973V45.995h-1.352l-6.604,10.151l0.061-2.1v-8.051H318.744z"
			/>
	</g>
	<g>
		<path d="M95.885,7.541V24.38h-11.37v6.85h-6.165V7.541H95.885z M84.514,18.781h5.212v-5.21h-5.212V18.781z"/>
		<path d="M125.003,7.541v16.194h-3.321l4.223,7.494h-6.889l-3.575-7.058h-1.816v7.058h-6.153V13.571v-6.03H125.003z
			 M113.626,18.565h5.217v-5.427h-5.217V18.565z"/>
		<path d="M154.628,7.541V31.23H136.97V7.541H154.628z M143.133,25.2h5.343V13.571h-5.343V25.2z"/>
		<g>
			<path d="M201.987,7.541l4.82,9.261l4.828-9.261h6.157V31.23h-6.157V16.716l-4.828,9.179l-4.82-9.179V31.23h-6.158V13.571v-6.03
				H201.987z"/>
			<path d="M235.754,7.541V31.23h-6.159V13.571v-6.03H235.754z"/>
			<path d="M265.217,7.541V31.23h-17.659V7.541H265.217z M253.719,25.2h5.335V13.571h-5.335V25.2z"/>
		</g>
		<polygon points="184.069,22.454 184.069,16.427 172.561,16.427 172.561,13.627 184.055,13.619 184.055,7.597 166.398,7.597 
			166.398,31.285 184.055,31.285 184.055,25.255 172.561,25.255 172.561,22.454 		"/>
	</g>
</g>
</svg>
